<svg xmlns="http://www.w3.org/2000/svg" viewBox="0 0 512 512" width="512" height="512">
  <defs>
    <linearGradient id="bg" x1="0%" y1="0%" x2="100%" y2="100%">
      <stop offset="0%" style="stop-color:#f97316;stop-opacity:1" />
      <stop offset="100%" style="stop-color:#ea580c;stop-opacity:1" />
    </linearGradient>
  </defs>
  
  <!-- Background -->
  <rect width="512" height="512" rx="100" fill="url(#bg)"/>
  
  <!-- Bread loaf shape -->
  <ellipse cx="256" cy="300" rx="150" ry="80" fill="#8B4513"/>
  <ellipse cx="256" cy="290" rx="150" ry="70" fill="#D2691E"/>
  <ellipse cx="256" cy="280" rx="140" ry="60" fill="#F4A460"/>
  
  <!-- Bread score marks -->
  <path d="M 180 250 Q 200 270 220 250" stroke="#8B4513" stroke-width="3" fill="none"/>
  <path d="M 220 260 Q 240 280 260 260" stroke="#8B4513" stroke-width="3" fill="none"/>
  <path d="M 260 250 Q 280 270 300 250" stroke="#8B4513" stroke-width="3" fill="none"/>
  
  <!-- Chef hat -->
  <ellipse cx="256" cy="150" rx="60" ry="40" fill="white"/>
  <rect x="196" y="140" width="120" height="30" fill="white"/>
  <ellipse cx="256" cy="120" rx="50" ry="35" fill="white"/>
  <ellipse cx="256" cy="100" rx="40" ry="30" fill="white"/>
  <ellipse cx="256" cy="85" rx="30" ry="25" fill="white"/>
  
  <!-- Chef hat band -->
  <rect x="200" y="170" width="112" height="8" fill="#f97316"/>
  
  <!-- Text -->
  <text x="256" y="420" font-family="Arial, sans-serif" font-size="48" font-weight="bold" 
        text-anchor="middle" fill="white">HomeBake</text>
</svg>